<?xml version="1.0" encoding="utf-8"?>
<svg xmlns="http://www.w3.org/2000/svg" xmlns:xlink="http://www.w3.org/1999/xlink" style="margin: auto; background: none; display: block; shape-rendering: auto;" width="83px" height="83px" viewBox="0 0 100 100" preserveAspectRatio="xMidYMid">
<g transform="translate(50 50)">
<g>
<animateTransform attributeName="transform" type="rotate" values="0;51.42857142857143" keyTimes="0;1" dur="0.2s" repeatCount="indefinite"></animateTransform><path d="M27.568097504180443 -9 L37.56809750418044 -9 L37.56809750418044 9 L27.568097504180443 9 A29 29 0 0 1 24.22491099271598 15.942198323787988 L24.22491099271598 15.942198323787988 L30.459809011303314 23.760513148468284 L16.38684232687878 34.98332958192549 L10.151944308291446 27.165014757245192 A29 29 0 0 1 2.6398724056074405 28.87959614818241 L2.6398724056074405 28.87959614818241 L0.41466306604429626 38.62887527000065 L-17.13403935322853 34.62349845878698 L-14.908830013665387 24.87421933696875 A29 29 0 0 1 -20.93304394650693 20.070069036593008 L-20.93304394650693 20.070069036593008 L-29.94273262553112 24.40890642776859 L-37.752639929647174 8.19146680552504 L-28.742951250622983 3.852629414349459 A29 29 0 0 1 -28.742951250622983 -3.8526294143494515 L-28.742951250622983 -3.8526294143494515 L-37.752639929647174 -8.191466805525032 L-29.94273262553113 -24.40890642776859 L-20.93304394650694 -20.070069036593008 A29 29 0 0 1 -14.908830013665392 -24.874219336968746 L-14.908830013665392 -24.874219336968746 L-17.134039353228538 -34.62349845878698 L0.4146630660442945 -38.62887527000065 L2.63987240560744 -28.87959614818241 A29 29 0 0 1 10.151944308291432 -27.165014757245196 L10.151944308291432 -27.165014757245196 L16.386842326878764 -34.983329581925496 L30.459809011303314 -23.760513148468288 L24.22491099271598 -15.942198323787988 A29 29 0 0 1 27.56809750418044 -9.00000000000001 M0 -19A19 19 0 1 0 0 19 A19 19 0 1 0 0 -19" fill="#388e3c"></path></g></g>
<!-- [ldio] generated by https://loading.io/ --></svg>